<svg id="Layer_1" data-name="Layer 1" xmlns="http://www.w3.org/2000/svg" viewBox="0 0 207.56 172.35"><defs><style>.cls-1{fill:#2e673e;}.cls-2{fill:#d5e1d6;}.cls-3{fill:#f7f8f8;}</style></defs><path class="cls-1" d="M405.59,188.33c-1.31,16.49-5.52,32.37-9.41,48.4s-13.4,23.38-28.91,27c-20.23,4.75-40.6,8.59-61,12.17-7.06,1.24-14.14-.88-21.14-1.83-19-2.58-37.81-6-56.05-12.18-9.83-3.33-16-9.23-19-19.55-5-17-7.94-34.35-11.42-51.62-1.48-7.38,1.22-14.68,2.78-21.91,2.68-12.42,5.17-24.89,10.21-36.67a14.07,14.07,0,0,1,7.43-7.56c16.28-7.55,33.69-11.43,51-15.51,9.47-2.23,18.95-4.81,28.71-5.12,12-.38,23.4,3.55,35,5.65,12.15,2.19,24,6.14,36.14,8.27,13.36,2.34,21,9.92,24.92,22.45a365.82,365.82,0,0,1,10.69,41C406,183.62,405.59,186,405.59,188.33ZM226.24,131.58a15.15,15.15,0,0,0-6.62,13.11q0,45.24,0,90.49c0,2.53.19,5,1.79,7.08,3.13,7.1,9,9.79,16.31,9.8q64.17.06,128.35.05c11.37,0,18.4-6.92,18.45-18.47q.17-43.75-.09-87.51c0-5-.74-10.23-5.62-13.44-2.8-3.91-6.94-4.88-11.35-4.88q-65.42-.06-130.85,0C232.75,127.8,229.12,128.69,226.24,131.58Z" transform="translate(-198.18 -103.95)"/><path class="cls-1" d="M334.83,220.33l-1,.91c-7.88,2.6-11,.7-11.16-6.74-1.51.88-.9,3.62-3.59,3.81-.89-5.67,2.32-10.5,3-15.75v0a1.68,1.68,0,0,0,.75-2.08c2.09-4.24,4-6.82,10.12-5,5.34,1.63,11.66,0,17.54,0,8.77-.07,9.72.6,11.92,9a80.1,80.1,0,0,1,1.33,8.8c-1.2,1.34-1.54,3.13-2.49,4.65-2.61,4.21-4.6,4.87-8.59,1.94C348.53,216.81,337.54,217.1,334.83,220.33Z" transform="translate(-198.18 -103.95)"/><path class="cls-1" d="M380.4,179.3c-5.26.49-10.08-1.46-14.83-3.1-3.67-1.28-4.41.15-4.54,3.17a57.29,57.29,0,0,1-1.13,11.3l-.73,1-.28.07L331,192c-2.71-2.67-1.34-5,.72-7.15a35.47,35.47,0,0,1,4.24-3.21A55.84,55.84,0,0,0,356.45,164c1.39-1.91,2.4-2.95,4.6-1.94a6.15,6.15,0,0,0,3.83.26l1.8.66c3.2,2.17,6.51,4.2,9.57,6.55S382.38,174.63,380.4,179.3Z" transform="translate(-198.18 -103.95)"/><path class="cls-1" d="M365.89,214.4c.23,0,.3-.17.23-.4.51-.55,1-1.1,1.54-1.66l.1-.08,1.06-.82h0l9.85,1.07h0c2.24,3.52,1.49,6.19-2.18,8.19-2.7,1.48-5.07,3.29-8.26,4.17-4.55,1.25-4.61-.62-4.57-4C363.69,218.35,366,216.82,365.89,214.4Z" transform="translate(-198.18 -103.95)"/><path class="cls-1" d="M245.42,230.32a11.91,11.91,0,0,1-18.14-4.57c-.66-1.61-.58-2.85.87-3.88,2.46-1.74,5.33-3.5,8.12-3.06,4,.62,3-1.21,3.13-3.66.27-6.44-.81-13.26,4-18.79,7.26-.27,14.54-.47,21.8-.85,3.66-.19,6.13.73,7.79,4.47,4.07,9.18,8.1,18.37,11,28a75.74,75.74,0,0,1,2.22,9.12c.62,3.78-1.49,4.58-4.33,2.84a106.28,106.28,0,0,1-8.69-6.51l-1.2-1c-1.68-2.28-3.38-4.35-6.71-4a60.32,60.32,0,0,1-20.57-1.15Z" transform="translate(-198.18 -103.95)"/><path class="cls-1" d="M297.12,242.22l-5.79-.45c.06-1.47-.32-4,.24-4.25,5-2,2.36-6.19,2.9-9.37,1.2-7-.62-11.74-8.11-14.82-9.49-3.9-10.86-13-10.3-19,.36-3.75,2.32-4.55,5.78-3.52,3,.89,4.56,3.61,7.27,4.73l1,1,.9,1.08c.25.37.5.73.76,1.09a19.12,19.12,0,0,1,1.12,2.65c.3,1.12.28,2.43,2,2.17,2.17-.34,1.15-1.91,1.14-3.09a1.06,1.06,0,0,0,0-.95v-7c0-4.63.29-9.28.05-13.89s-4.31-7.28-6.47-10.9c-4.27-7.17,2.7-20.58,7.31-24.47,1.36-1.14,2,.07,2.83.86,8.45,8.33,9.43,19.59,2.64,29.21-.53.75-1.73.83-1.73,2.07,0,10,0,20,.72,30.21,2.33-7.29,6.5-12.52,13.68-15a3.47,3.47,0,0,0,3-.11l1.13,1c3.08,8.93.52,16.93-7.46,20.76-9.22,4.42-9.81,10.95-9.67,19.48.07,3.92,3.46,4.66,4,7.5.1,2.06-1,2.93-2.94,3A13.52,13.52,0,0,0,297.12,242.22Zm-9.65-34-.45.57.51.27-.15-.8c-1.25-1.7-4.68-3.18-2.73-5.34,1.61-1.77,2.7,2,4.46,2.56a3.35,3.35,0,0,0,1,0c-.23-5.07-4.75-7.19-7.26-10.6a2,2,0,0,0-3.17.87C278.12,199.57,283.26,207.73,287.47,208.25Zm10.33-59.89c-6.67,8-7.2,15.09-1.82,21.58,1.61,1.95,2.62,2.41,4.19-.32C304.94,161.32,304.61,156.75,297.8,148.36Zm18.88,46.43a11.67,11.67,0,0,0-8.69,5.93c-1.81,2.91-.33,4.87,1.41,6.31,1.94,1.59,2.89-.7,4.14-2A10.73,10.73,0,0,0,316.68,194.79Zm-25.89,12.05-.25-.18,0,.33Z" transform="translate(-198.18 -103.95)"/><path class="cls-1" d="M277.2,168.63l5.78,5.06,1.12,1,0,0,1.07,1.08a2.77,2.77,0,0,0,.53.81c5.16,3.8,4.71,8.15,1.29,12.81-3.94,0-6.44-3.08-9.67-4.59-1.26-.59-2.38-2.3-3.89-1.39-1.33.81-.57,2.46-.4,3.69.53,3.85-.94,5.31-4.9,5.37-7.59.11-15.18.7-22.77,1.09l-.05,0-.71-.81c0-.7.09-1.4.14-2.1.11-1.38.21-2.75.32-4.13.08-.63.17-1.27.26-1.91,2.26-3.13,4.94-5.67,8.93-6.35,5.16-.89,8.34-4.2,10.67-8.59l4.35-4.23C272.52,164.94,274.7,167.19,277.2,168.63Z" transform="translate(-198.18 -103.95)"/><path class="cls-1" d="M233.42,165.65c.87-3.44,4.33-4.44,6.63-6.19,3.24-2.47,3.52-5.2,3.26-8.55-.32-4.27.24-8.23,3.63-11.31,7.75-7,19.37-3.16,20.79,7.7a17.33,17.33,0,0,0,7.65,12.79c1,.76,2.31,1.48,1.64,3.17-2.12,1.46-3.8-1.06-5.81-.64a16.61,16.61,0,0,0-13.91.15c-5.7-2-11.25-2.42-16.67,1C238.51,165.15,236.1,166.15,233.42,165.65Z" transform="translate(-198.18 -103.95)"/><path class="cls-1" d="M322.16,168.68a.74.74,0,0,0,.74-.45,5.9,5.9,0,0,0,3.13-2.56h0a1.74,1.74,0,0,0,1.69-1.15l.22-.1c.64.12,1-.18,1-.8l0,0,1.15-.76,0,0,1.17-.73a3.39,3.39,0,0,0,2.69-1.41l2.91-.21c2.72,3.78-1.13,6.74-1.61,10.75,4-2.12,5.48-5.61,7.46-8.64l3.69-4.71c2.11-.66,4.21-1.77,6.39-.19a1.41,1.41,0,0,0,1.95.62l.09,0c-1,0-1.19.56-1,1.39a17.19,17.19,0,0,1-4.68,7.41q-6.23,5.85-12.42,11.74l-.94.51-1.47.87c-5.43-.14-.11-3.73-2-5.26-5.16,2.91-7.49,10-14.38,10.84-6.41-.06-7.07-.64-6.88-6.13v0a5.55,5.55,0,0,0,2.6-3.2l1.14-1.19A30.77,30.77,0,0,0,322.16,168.68Z" transform="translate(-198.18 -103.95)"/><path class="cls-1" d="M334.05,153.54l-.25-1.84c.31-3.45.28-6.81-2.74-9.25-1.59-1.29-1.22-2.8-.66-4.37l-.26-.12.22.17L339,135l4.91-.94c8.62,2.46,10.52,5.46,9.08,14.23-.13.8-.14,1.61-.2,2.42v0c-2.15,3.22-5.87,4.11-9,5.94l-.48,0-.44.24-4,0c-1.21-.76-3,.53-4-1.09C335.17,154.75,334.62,154.14,334.05,153.54Z" transform="translate(-198.18 -103.95)"/><path class="cls-1" d="M240.27,180.52l-.46,0-.4.24-5.49,1.58a.39.39,0,0,0-.52.23c-2.62-.15-5.27.68-7.87-.21,0-.58-.05-1.15-.07-1.72l8.1-7.85h0a56.17,56.17,0,0,0,4.91-3.23c5.32-4.3,11.12-6.24,17.89-4.07l1.64,1.28c1.19,3.3-.24,5.24-3.2,6.63C249.91,175.68,245.11,178.13,240.27,180.52Z" transform="translate(-198.18 -103.95)"/><path class="cls-1" d="M272.18,236.44c2.87,4.27,0,4.79-3.25,4.81-10.06.07-20.12,0-30.18.05-1.8,0-3.6.18-5.41.28l-2,0a6.88,6.88,0,0,0-3.94-.27c-2.67-4.46,0-5,3.61-5C244.76,236.42,258.47,236.42,272.18,236.44Z" transform="translate(-198.18 -103.95)"/><path class="cls-1" d="M311,236.29c1.21-3.9,2.41-7.8,3.64-11.69,1-3.11,3-4.09,6.05-2.87,1.06.42,2.15.78,3.22,1.19,6,2.32,6.49,4,2.94,9.23h0l-11,8-2.76.42-2.05-1.32Z" transform="translate(-198.18 -103.95)"/><path class="cls-1" d="M327.13,237.78l.91-.62c8.76,0,17.52-.06,26.28-.15,2.26,0,4.62.4,6.62-1.13l1.93-.48a52.09,52.09,0,0,0,11.84,0c1,.73,4.68-.55,2,2.8-3.45.29-7.55-2.07-10,2.6-.29.57-1.82.69-2.77.69-11.26,0-22.52,0-33.79,0C327.53,241.54,326.68,240.25,327.13,237.78Z" transform="translate(-198.18 -103.95)"/><path class="cls-2" d="M367.66,212.34c-.51.56-1,1.11-1.54,1.66C366,212.83,366.64,212.43,367.66,212.34Z" transform="translate(-198.18 -103.95)"/><path class="cls-2" d="M369.79,227.34l1.23.34c-.69.86-.86-.06-1.22-.35Z" transform="translate(-198.18 -103.95)"/><path class="cls-2" d="M329,163.63c-.06.62-.38.92-1,.8Z" transform="translate(-198.18 -103.95)"/><path class="cls-2" d="M334.41,180.2l1.47-.87c0,.4.05.81.07,1.21v0Z" transform="translate(-198.18 -103.95)"/><path class="cls-2" d="M330.12,162.85l-1.15.76Z" transform="translate(-198.18 -103.95)"/><path class="cls-2" d="M244.58,192.69l.71.81C244.76,193.49,244.4,193.32,244.58,192.69Z" transform="translate(-198.18 -103.95)"/><path class="cls-2" d="M331.32,162.1l-1.16.73A.82.82,0,0,1,331.32,162.1Z" transform="translate(-198.18 -103.95)"/><path class="cls-2" d="M285.15,175.74l-1.07-1.08Z" transform="translate(-198.18 -103.95)"/><path class="cls-2" d="M284.1,174.68l-1.12-1Z" transform="translate(-198.18 -103.95)"/><path class="cls-2" d="M291,197.62l-.9-1.08Z" transform="translate(-198.18 -103.95)"/><path class="cls-2" d="M359.17,191.62l.73-1Z" transform="translate(-198.18 -103.95)"/><path class="cls-2" d="M368.82,211.44l-1.06.82Z" transform="translate(-198.18 -103.95)"/><path class="cls-2" d="M366.8,243.27l.4.21-.38-.23Z" transform="translate(-198.18 -103.95)"/><path class="cls-3" d="M296,200.44a4.77,4.77,0,0,1-.32-.69c0-.05.22-.17.34-.26A1.06,1.06,0,0,1,296,200.44Z" transform="translate(-198.18 -103.95)"/><path class="cls-3" d="M336,180.54c0-.4-.05-.81-.07-1.21l.94-.51Z" transform="translate(-198.18 -103.95)"/></svg>